# xmcd
#
# Track frame offsets: 
#        150
#        28653
#        53205
#        78455
#        99650
#        121245
#        145115
#        171775
#        194293
#        213613
#        235093
#        264890
#        298323
#
# Disc length: 4250 seconds
#
# Revision: 6
# Processed by: cddbd v1.5.2PL0 Copyright (c) Steve Scherf et al.
# Submitted via: ExactAudioCopy v0.99pb5
#
DISCID=bb10980d
DTITLE=Kelly Joe Phelps - Lead Me On
DYEAR=1995
DGENRE=Folk Blues
TTITLE0=I've Been Converted
TTITLE1=Hard Time Killin' Floor Blues
TTITLE2=Where Do I Go Now
TTITLE3=Love Me Baby Blues
TTITLE4=Lead Me On
TTITLE5=Jesus Make Up My Dying Bed
TTITLE6=Leavin' Blues
TTITLE7=Marking Stone Blues
TTITLE8=The Black Crow Keeps Flying
TTITLE9=I'd Be a Rich Man
TTITLE10=Someone To Save Me
TTITLE11=Motherless Children
TTITLE12=Fare Thee Well
EXTD=YEAR: 1995
EXTT0=
EXTT1=
EXTT2=
EXTT3=
EXTT4=
EXTT5=
EXTT6=
EXTT7=
EXTT8=
EXTT9=
EXTT10=
EXTT11=
EXTT12=
PLAYORDER=
